<svg xmlns="http://www.w3.org/2000/svg" width="512" height="512" viewBox="0 0 512 512">
  <!-- Background Circle -->
  <circle cx="256" cy="256" r="256" fill="#2979FF" />
  
  <!-- Checklist Background -->
  <rect x="128" y="96" width="256" height="320" rx="16" ry="16" fill="white" />
  
  <!-- Checklist Lines -->
  <line x1="160" y1="160" x2="352" y2="160" stroke="#E0E0E0" stroke-width="4" />
  <line x1="160" y1="200" x2="352" y2="200" stroke="#E0E0E0" stroke-width="4" />
  <line x1="160" y1="240" x2="352" y2="240" stroke="#E0E0E0" stroke-width="4" />
  <line x1="160" y1="280" x2="352" y2="280" stroke="#E0E0E0" stroke-width="4" />
  <line x1="160" y1="320" x2="352" y2="320" stroke="#E0E0E0" stroke-width="4" />
  <line x1="160" y1="360" x2="352" y2="360" stroke="#E0E0E0" stroke-width="4" />
  
  <!-- Checkboxes -->
  <rect x="168" y="144" width="24" height="24" rx="4" ry="4" fill="#F5F5F5" stroke="#BDBDBD" stroke-width="2" />
  <rect x="168" y="184" width="24" height="24" rx="4" ry="4" fill="#F5F5F5" stroke="#BDBDBD" stroke-width="2" />
  <rect x="168" y="224" width="24" height="24" rx="4" ry="4" fill="#F5F5F5" stroke="#BDBDBD" stroke-width="2" />
  
  <!-- Checked Boxes -->
  <rect x="168" y="264" width="24" height="24" rx="4" ry="4" fill="#4CAF50" stroke="#4CAF50" stroke-width="2" />
  <path d="M174 276 L180 282 L186 270" stroke="white" stroke-width="3" fill="none" stroke-linecap="round" stroke-linejoin="round" />
  
  <rect x="168" y="304" width="24" height="24" rx="4" ry="4" fill="#4CAF50" stroke="#4CAF50" stroke-width="2" />
  <path d="M174 316 L180 322 L186 310" stroke="white" stroke-width="3" fill="none" stroke-linecap="round" stroke-linejoin="round" />
  
  <rect x="168" y="344" width="24" height="24" rx="4" ry="4" fill="#4CAF50" stroke="#4CAF50" stroke-width="2" />
  <path d="M174 356 L180 362 L186 350" stroke="white" stroke-width="3" fill="none" stroke-linecap="round" stroke-linejoin="round" />
  
  <!-- Task Text (Represented as lines) -->
  <line x1="208" y1="156" x2="320" y2="156" stroke="#424242" stroke-width="6" stroke-linecap="round" />
  <line x1="208" y1="196" x2="300" y2="196" stroke="#424242" stroke-width="6" stroke-linecap="round" />
  <line x1="208" y1="236" x2="340" y2="236" stroke="#424242" stroke-width="6" stroke-linecap="round" />
  
  <!-- Completed Task Text (Represented as lines with strikethrough) -->
  <line x1="208" y1="276" x2="320" y2="276" stroke="#9E9E9E" stroke-width="6" stroke-linecap="round" />
  <line x1="208" y1="276" x2="320" y2="276" stroke="#BDBDBD" stroke-width="2" stroke-linecap="round" />
  
  <line x1="208" y1="316" x2="280" y2="316" stroke="#9E9E9E" stroke-width="6" stroke-linecap="round" />
  <line x1="208" y1="316" x2="280" y2="316" stroke="#BDBDBD" stroke-width="2" stroke-linecap="round" />
  
  <line x1="208" y1="356" x2="300" y2="356" stroke="#9E9E9E" stroke-width="6" stroke-linecap="round" />
  <line x1="208" y1="356" x2="300" y2="356" stroke="#BDBDBD" stroke-width="2" stroke-linecap="round" />
  
  <!-- App Title -->
  <text x="256" y="128" font-family="Arial, sans-serif" font-size="24" font-weight="bold" text-anchor="middle" fill="#2979FF">TaskMaster Pro</text>
</svg>